<?xml version="1.0" standalone="no"?>
<!DOCTYPE svg PUBLIC "-//W3C//DTD SVG 20010904//EN"
 "http://www.w3.org/TR/2001/REC-SVG-20010904/DTD/svg10.dtd">
<svg version="1.0" xmlns="http://www.w3.org/2000/svg"
 width="260.000000pt" height="260.000000pt" viewBox="0 0 260.000000 260.000000"
 preserveAspectRatio="xMidYMid meet">
<metadata>
Created by potrace 1.11, written by Peter Selinger 2001-2013
</metadata>
<g transform="translate(0.000000,260.000000) scale(0.100000,-0.100000)"
fill="#000000" stroke="none">
<path d="M50 2590 c0 -5 -7 -10 -15 -10 -8 0 -15 -4 -15 -10 0 -5 18 -10 40
-10 22 0 40 5 40 10 0 6 -7 10 -15 10 -8 0 -15 5 -15 10 0 6 -4 10 -10 10 -5
0 -10 -4 -10 -10z"/>
<path d="M160 2590 c0 -5 -7 -10 -15 -10 -8 0 -15 -4 -15 -10 0 -5 18 -10 40
-10 22 0 40 5 40 10 0 6 -7 10 -15 10 -8 0 -15 5 -15 10 0 6 -4 10 -10 10 -5
0 -10 -4 -10 -10z"/>
<path d="M241 2593 c-2 -22 34 -34 55 -18 10 7 16 17 11 21 -4 4 -7 2 -7 -4 0
-16 -47 -15 -53 1 -4 9 -6 9 -6 0z"/>
<path d="M351 2593 c-2 -22 34 -34 55 -18 10 7 16 17 11 21 -4 4 -7 2 -7 -4 0
-16 -47 -15 -53 1 -4 9 -6 9 -6 0z"/>
<path d="M490 2590 c0 -5 -7 -10 -15 -10 -8 0 -15 -4 -15 -10 0 -5 18 -10 40
-10 22 0 40 5 40 10 0 6 -7 10 -15 10 -8 0 -15 5 -15 10 0 6 -4 10 -10 10 -5
0 -10 -4 -10 -10z"/>
<path d="M600 2590 c0 -5 -7 -10 -15 -10 -8 0 -15 -4 -15 -10 0 -5 18 -10 40
-10 22 0 40 5 40 10 0 6 -7 10 -15 10 -8 0 -15 5 -15 10 0 6 -4 10 -10 10 -5
0 -10 -4 -10 -10z"/>
<path d="M681 2593 c-2 -22 34 -34 55 -18 10 7 16 17 11 21 -4 4 -7 2 -7 -4 0
-16 -47 -15 -53 1 -4 9 -6 9 -6 0z"/>
<path d="M820 2590 c0 -5 -7 -10 -15 -10 -8 0 -15 -4 -15 -10 0 -5 18 -10 40
-10 22 0 40 5 40 10 0 6 -7 10 -15 10 -8 0 -15 5 -15 10 0 6 -4 10 -10 10 -5
0 -10 -4 -10 -10z"/>
<path d="M930 2590 c0 -5 -7 -10 -15 -10 -8 0 -15 -4 -15 -10 0 -5 18 -10 40
-10 22 0 40 5 40 10 0 6 -7 10 -15 10 -8 0 -15 5 -15 10 0 6 -4 10 -10 10 -5
0 -10 -4 -10 -10z"/>
<path d="M1011 2593 c-2 -22 34 -34 55 -18 10 7 16 17 11 21 -4 4 -7 2 -7 -4
0 -16 -47 -15 -53 1 -4 9 -6 9 -6 0z"/>
<path d="M1121 2593 c-2 -22 34 -34 55 -18 10 7 16 17 11 21 -4 4 -7 2 -7 -4
0 -16 -47 -15 -53 1 -4 9 -6 9 -6 0z"/>
<path d="M1231 2593 c-2 -22 34 -34 55 -18 10 7 16 17 11 21 -4 4 -7 2 -7 -4
0 -16 -47 -15 -53 1 -4 9 -6 9 -6 0z"/>
<path d="M1370 2590 c0 -5 -7 -10 -15 -10 -8 0 -15 -4 -15 -10 0 -5 18 -10 40
-10 22 0 40 5 40 10 0 6 -7 10 -15 10 -8 0 -15 5 -15 10 0 6 -4 10 -10 10 -5
0 -10 -4 -10 -10z"/>
<path d="M1480 2590 c0 -5 -7 -10 -15 -10 -8 0 -15 -4 -15 -10 0 -5 18 -10 40
-10 22 0 40 5 40 10 0 6 -7 10 -15 10 -8 0 -15 5 -15 10 0 6 -4 10 -10 10 -5
0 -10 -4 -10 -10z"/>
<path d="M1561 2593 c-2 -22 34 -34 55 -18 10 7 16 17 11 21 -4 4 -7 2 -7 -4
0 -16 -47 -15 -53 1 -4 9 -6 9 -6 0z"/>
<path d="M1700 2590 c0 -5 -7 -10 -15 -10 -8 0 -15 -4 -15 -10 0 -5 18 -10 40
-10 22 0 40 5 40 10 0 6 -7 10 -15 10 -8 0 -15 5 -15 10 0 6 -4 10 -10 10 -5
0 -10 -4 -10 -10z"/>
<path d="M1810 2590 c0 -5 -7 -10 -15 -10 -8 0 -15 -4 -15 -10 0 -5 18 -10 40
-10 22 0 40 5 40 10 0 6 -7 10 -15 10 -8 0 -15 5 -15 10 0 6 -4 10 -10 10 -5
0 -10 -4 -10 -10z"/>
<path d="M1920 2590 c0 -5 -7 -10 -15 -10 -8 0 -15 -4 -15 -10 0 -5 18 -10 40
-10 22 0 40 5 40 10 0 6 -7 10 -15 10 -8 0 -15 5 -15 10 0 6 -4 10 -10 10 -5
0 -10 -4 -10 -10z"/>
<path d="M2001 2593 c-2 -22 34 -34 55 -18 10 7 16 17 11 21 -4 4 -7 2 -7 -4
0 -16 -47 -15 -53 1 -4 9 -6 9 -6 0z"/>
<path d="M2140 2590 c0 -5 -7 -10 -15 -10 -8 0 -15 -4 -15 -10 0 -5 18 -10 40
-10 22 0 40 5 40 10 0 6 -7 10 -15 10 -8 0 -15 5 -15 10 0 6 -4 10 -10 10 -5
0 -10 -4 -10 -10z"/>
<path d="M2221 2593 c-2 -22 34 -34 55 -18 10 7 16 17 11 21 -4 4 -7 2 -7 -4
0 -16 -47 -15 -53 1 -4 9 -6 9 -6 0z"/>
<path d="M2360 2590 c0 -5 -7 -10 -15 -10 -8 0 -15 -4 -15 -10 0 -5 18 -10 40
-10 22 0 40 5 40 10 0 6 -7 10 -15 10 -8 0 -15 5 -15 10 0 6 -4 10 -10 10 -5
0 -10 -4 -10 -10z"/>
<path d="M2441 2593 c-2 -22 34 -34 55 -18 10 7 16 17 11 21 -4 4 -7 2 -7 -4
0 -16 -47 -15 -53 1 -4 9 -6 9 -6 0z"/>
<path d="M2580 2590 c0 -5 -7 -10 -15 -10 -8 0 -15 -4 -15 -10 0 -5 11 -10 25
-10 18 0 25 5 25 20 0 11 -4 20 -10 20 -5 0 -10 -4 -10 -10z"/>
<path d="M35 2467 c-23 -18 -23 -86 0 -104 35 -25 66 15 57 75 -5 30 -34 45
-57 29z m45 -52 c0 -41 -2 -45 -25 -45 -23 0 -25 4 -25 45 0 41 2 45 25 45 23
0 25 -4 25 -45z"/>
<path d="M145 2470 c-17 -7 -17 -9 -2 -9 13 -1 17 -10 17 -46 0 -33 -4 -45
-15 -45 -8 0 -15 -4 -15 -10 0 -5 18 -10 40 -10 22 0 40 5 40 10 0 6 -7 10
-15 10 -12 0 -15 13 -15 55 0 57 -2 59 -35 45z"/>
<path d="M255 2467 c-11 -9 -17 -27 -17 -52 0 -45 24 -70 52 -55 32 17 32 93
1 110 -13 6 -24 5 -36 -3z m45 -52 c0 -41 -2 -45 -25 -45 -23 0 -25 4 -25 45
0 41 2 45 25 45 23 0 25 -4 25 -45z"/>
<path d="M365 2470 c-17 -7 -17 -9 -2 -9 13 -1 17 -10 17 -46 0 -33 -4 -45
-15 -45 -8 0 -15 -4 -15 -10 0 -5 18 -10 40 -10 22 0 40 5 40 10 0 6 -7 10
-15 10 -12 0 -15 13 -15 55 0 57 -2 59 -35 45z"/>
<path d="M475 2467 c-11 -9 -17 -27 -17 -52 0 -45 24 -70 52 -55 32 17 32 93
1 110 -13 6 -24 5 -36 -3z m45 -52 c0 -41 -2 -45 -25 -45 -23 0 -25 4 -25 45
0 41 2 45 25 45 23 0 25 -4 25 -45z"/>
<path d="M585 2470 c-17 -7 -17 -9 -2 -9 13 -1 17 -10 17 -46 0 -33 -4 -45
-15 -45 -8 0 -15 -4 -15 -10 0 -5 18 -10 40 -10 22 0 40 5 40 10 0 6 -7 10
-15 10 -12 0 -15 13 -15 55 0 57 -2 59 -35 45z"/>
<path d="M695 2470 c-17 -7 -17 -9 -2 -9 13 -1 17 -10 17 -46 0 -33 -4 -45
-15 -45 -8 0 -15 -4 -15 -10 0 -5 18 -10 40 -10 22 0 40 5 40 10 0 6 -7 10
-15 10 -12 0 -15 13 -15 55 0 57 -2 59 -35 45z"/>
<path d="M805 2470 c-17 -7 -17 -9 -2 -9 13 -1 17 -10 17 -46 0 -33 -4 -45
-15 -45 -8 0 -15 -4 -15 -10 0 -5 18 -10 40 -10 22 0 40 5 40 10 0 6 -7 10
-15 10 -12 0 -15 13 -15 55 0 57 -2 59 -35 45z"/>
<path d="M915 2470 c-17 -7 -17 -9 -2 -9 13 -1 17 -10 17 -46 0 -33 -4 -45
-15 -45 -8 0 -15 -4 -15 -10 0 -5 18 -10 40 -10 22 0 40 5 40 10 0 6 -7 10
-15 10 -12 0 -15 13 -15 55 0 57 -2 59 -35 45z"/>
<path d="M1025 2467 c-11 -9 -17 -27 -17 -52 0 -45 24 -70 52 -55 32 17 32 93
1 110 -13 6 -24 5 -36 -3z m45 -52 c0 -41 -2 -45 -25 -45 -23 0 -25 4 -25 45
0 41 2 45 25 45 23 0 25 -4 25 -45z"/>
<path d="M1135 2467 c-11 -9 -17 -27 -17 -52 0 -45 24 -70 52 -55 32 17 32 93
1 110 -13 6 -24 5 -36 -3z m45 -52 c0 -41 -2 -45 -25 -45 -23 0 -25 4 -25 45
0 41 2 45 25 45 23 0 25 -4 25 -45z"/>
<path d="M1245 2467 c-11 -9 -17 -27 -17 -52 0 -45 24 -70 52 -55 32 17 32 93
1 110 -13 6 -24 5 -36 -3z m45 -52 c0 -41 -2 -45 -25 -45 -23 0 -25 4 -25 45
0 41 2 45 25 45 23 0 25 -4 25 -45z"/>
<path d="M1355 2467 c-11 -9 -17 -27 -17 -52 0 -45 24 -70 52 -55 32 17 32 93
1 110 -13 6 -24 5 -36 -3z m45 -52 c0 -41 -2 -45 -25 -45 -23 0 -25 4 -25 45
0 41 2 45 25 45 23 0 25 -4 25 -45z"/>
<path d="M1465 2467 c-11 -9 -17 -27 -17 -52 0 -45 24 -70 52 -55 32 17 32 93
1 110 -13 6 -24 5 -36 -3z m45 -52 c0 -41 -2 -45 -25 -45 -23 0 -25 4 -25 45
0 41 2 45 25 45 23 0 25 -4 25 -45z"/>
<path d="M1575 2470 c-17 -7 -17 -9 -2 -9 13 -1 17 -10 17 -46 0 -33 -4 -45
-15 -45 -8 0 -15 -4 -15 -10 0 -5 18 -10 40 -10 22 0 40 5 40 10 0 6 -7 10
-15 10 -12 0 -15 13 -15 55 0 57 -2 59 -35 45z"/>
<path d="M1685 2467 c-11 -9 -17 -27 -17 -52 0 -45 24 -70 52 -55 32 17 32 93
1 110 -13 6 -24 5 -36 -3z m45 -52 c0 -41 -2 -45 -25 -45 -23 0 -25 4 -25 45
0 41 2 45 25 45 23 0 25 -4 25 -45z"/>
<path d="M1795 2467 c-11 -9 -17 -27 -17 -52 0 -45 24 -70 52 -55 32 17 32 93
1 110 -13 6 -24 5 -36 -3z m45 -52 c0 -41 -2 -45 -25 -45 -23 0 -25 4 -25 45
0 41 2 45 25 45 23 0 25 -4 25 -45z"/>
<path d="M1905 2467 c-11 -9 -17 -27 -17 -52 0 -45 24 -70 52 -55 32 17 32 93
1 110 -13 6 -24 5 -36 -3z m45 -52 c0 -41 -2 -45 -25 -45 -23 0 -25 4 -25 45
0 41 2 45 25 45 23 0 25 -4 25 -45z"/>
<path d="M2015 2467 c-11 -9 -17 -27 -17 -52 0 -45 24 -70 52 -55 32 17 32 93
1 110 -13 6 -24 5 -36 -3z m45 -52 c0 -41 -2 -45 -25 -45 -23 0 -25 4 -25 45
0 41 2 45 25 45 23 0 25 -4 25 -45z"/>
<path d="M2125 2467 c-11 -9 -17 -27 -17 -52 0 -45 24 -70 52 -55 32 17 32 93
1 110 -13 6 -24 5 -36 -3z m45 -52 c0 -41 -2 -45 -25 -45 -23 0 -25 4 -25 45
0 41 2 45 25 45 23 0 25 -4 25 -45z"/>
<path d="M2235 2467 c-11 -9 -17 -27 -17 -52 0 -45 24 -70 52 -55 32 17 32 93
1 110 -13 6 -24 5 -36 -3z m45 -52 c0 -41 -2 -45 -25 -45 -23 0 -25 4 -25 45
0 41 2 45 25 45 23 0 25 -4 25 -45z"/>
<path d="M2345 2470 c-17 -7 -17 -9 -2 -9 13 -1 17 -10 17 -46 0 -33 -4 -45
-15 -45 -8 0 -15 -4 -15 -10 0 -5 18 -10 40 -10 22 0 40 5 40 10 0 6 -7 10
-15 10 -12 0 -15 13 -15 55 0 57 -2 59 -35 45z"/>
<path d="M2455 2470 c-17 -7 -17 -9 -2 -9 13 -1 17 -10 17 -46 0 -33 -4 -45
-15 -45 -8 0 -15 -4 -15 -10 0 -5 18 -10 40 -10 22 0 40 5 40 10 0 6 -7 10
-15 10 -12 0 -15 13 -15 55 0 57 -2 59 -35 45z"/>
<path d="M2565 2467 c-37 -28 -9 -134 29 -109 7 4 2 8 -11 10 -20 3 -23 9 -23
47 0 38 3 44 23 47 13 2 18 6 11 10 -6 4 -19 2 -29 -5z"/>
<path d="M35 2257 c-23 -18 -23 -86 0 -104 35 -25 66 15 57 75 -5 30 -34 45
-57 29z m45 -52 c0 -41 -2 -45 -25 -45 -23 0 -25 4 -25 45 0 41 2 45 25 45 23
0 25 -4 25 -45z"/>
<path d="M145 2260 c-17 -7 -17 -9 -2 -9 13 -1 17 -10 17 -46 0 -33 -4 -45
-15 -45 -8 0 -15 -4 -15 -10 0 -5 18 -10 40 -10 22 0 40 5 40 10 0 6 -7 10
-15 10 -12 0 -15 13 -15 55 0 57 -2 59 -35 45z"/>
<path d="M255 2257 c-11 -9 -17 -27 -17 -52 0 -45 24 -70 52 -55 32 17 32 93
1 110 -13 6 -24 5 -36 -3z m45 -52 c0 -41 -2 -45 -25 -45 -23 0 -25 4 -25 45
0 41 2 45 25 45 23 0 25 -4 25 -45z"/>
<path d="M365 2257 c-11 -9 -17 -27 -17 -52 0 -45 24 -70 52 -55 32 17 32 93
1 110 -13 6 -24 5 -36 -3z m45 -52 c0 -41 -2 -45 -25 -45 -23 0 -25 4 -25 45
0 41 2 45 25 45 23 0 25 -4 25 -45z"/>
<path d="M475 2257 c-11 -9 -17 -27 -17 -52 0 -45 24 -70 52 -55 32 17 32 93
1 110 -13 6 -24 5 -36 -3z m45 -52 c0 -41 -2 -45 -25 -45 -23 0 -25 4 -25 45
0 41 2 45 25 45 23 0 25 -4 25 -45z"/>
<path d="M585 2260 c-17 -7 -17 -9 -2 -9 13 -1 17 -10 17 -46 0 -33 -4 -45
-15 -45 -8 0 -15 -4 -15 -10 0 -5 18 -10 40 -10 22 0 40 5 40 10 0 6 -7 10
-15 10 -12 0 -15 13 -15 55 0 57 -2 59 -35 45z"/>
<path d="M695 2260 c-17 -7 -17 -9 -2 -9 13 -1 17 -10 17 -46 0 -33 -4 -45
-15 -45 -8 0 -15 -4 -15 -10 0 -5 18 -10 40 -10 22 0 40 5 40 10 0 6 -7 10
-15 10 -12 0 -15 13 -15 55 0 57 -2 59 -35 45z"/>
<path d="M805 2257 c-11 -9 -17 -27 -17 -52 0 -45 24 -70 52 -55 32 17 32 93
1 110 -13 6 -24 5 -36 -3z m45 -52 c0 -41 -2 -45 -25 -45 -23 0 -25 4 -25 45
0 41 2 45 25 45 23 0 25 -4 25 -45z"/>
<path d="M915 2260 c-17 -7 -17 -9 -2 -9 13 -1 17 -10 17 -46 0 -33 -4 -45
-15 -45 -8 0 -15 -4 -15 -10 0 -5 18 -10 40 -10 22 0 40 5 40 10 0 6 -7 10
-15 10 -12 0 -15 13 -15 55 0 57 -2 59 -35 45z"/>
<path d="M1025 2257 c-11 -9 -17 -27 -17 -52 0 -45 24 -70 52 -55 32 17 32 93
1 110 -13 6 -24 5 -36 -3z m45 -52 c0 -41 -2 -45 -25 -45 -23 0 -25 4 -25 45
0 41 2 45 25 45 23 0 25 -4 25 -45z"/>
<path d="M1135 2257 c-11 -9 -17 -27 -17 -52 0 -45 24 -70 52 -55 32 17 32 93
1 110 -13 6 -24 5 -36 -3z m45 -52 c0 -41 -2 -45 -25 -45 -23 0 -25 4 -25 45
0 41 2 45 25 45 23 0 25 -4 25 -45z"/>
<path d="M1245 2260 c-17 -7 -17 -9 -2 -9 13 -1 17 -10 17 -46 0 -33 -4 -45
-15 -45 -8 0 -15 -4 -15 -10 0 -5 18 -10 40 -10 22 0 40 5 40 10 0 6 -7 10
-15 10 -12 0 -15 13 -15 55 0 57 -2 59 -35 45z"/>
<path d="M1355 2257 c-11 -9 -17 -27 -17 -52 0 -45 24 -70 52 -55 32 17 32 93
1 110 -13 6 -24 5 -36 -3z m45 -52 c0 -41 -2 -45 -25 -45 -23 0 -25 4 -25 45
0 41 2 45 25 45 23 0 25 -4 25 -45z"/>
<path d="M1465 2260 c-17 -7 -17 -9 -2 -9 13 -1 17 -10 17 -46 0 -33 -4 -45
-15 -45 -8 0 -15 -4 -15 -10 0 -5 18 -10 40 -10 22 0 40 5 40 10 0 6 -7 10
-15 10 -12 0 -15 13 -15 55 0 57 -2 59 -35 45z"/>
<path d="M1575 2260 c-17 -7 -17 -9 -2 -9 13 -1 17 -10 17 -46 0 -33 -4 -45
-15 -45 -8 0 -15 -4 -15 -10 0 -5 18 -10 40 -10 22 0 40 5 40 10 0 6 -7 10
-15 10 -12 0 -15 13 -15 55 0 57 -2 59 -35 45z"/>
<path d="M1685 2260 c-17 -7 -17 -9 -2 -9 13 -1 17 -10 17 -46 0 -33 -4 -45
-15 -45 -8 0 -15 -4 -15 -10 0 -5 18 -10 40 -10 22 0 40 5 40 10 0 6 -7 10
-15 10 -12 0 -15 13 -15 55 0 57 -2 59 -35 45z"/>
<path d="M1795 2257 c-11 -9 -17 -27 -17 -52 0 -45 24 -70 52 -55 32 17 32 93
1 110 -13 6 -24 5 -36 -3z m45 -52 c0 -41 -2 -45 -25 -45 -23 0 -25 4 -25 45
0 41 2 45 25 45 23 0 25 -4 25 -45z"/>
<path d="M1905 2257 c-11 -9 -17 -27 -17 -52 0 -45 24 -70 52 -55 32 17 32 93
1 110 -13 6 -24 5 -36 -3z m45 -52 c0 -41 -2 -45 -25 -45 -23 0 -25 4 -25 45
0 41 2 45 25 45 23 0 25 -4 25 -45z"/>
<path d="M2015 2257 c-11 -9 -17 -27 -17 -52 0 -45 24 -70 52 -55 32 17 32 93
1 110 -13 6 -24 5 -36 -3z m45 -52 c0 -41 -2 -45 -25 -45 -23 0 -25 4 -25 45
0 41 2 45 25 45 23 0 25 -4 25 -45z"/>
<path d="M2125 2257 c-11 -9 -17 -27 -17 -52 0 -45 24 -70 52 -55 32 17 32 93
1 110 -13 6 -24 5 -36 -3z m45 -52 c0 -41 -2 -45 -25 -45 -23 0 -25 4 -25 45
0 41 2 45 25 45 23 0 25 -4 25 -45z"/>
<path d="M2235 2257 c-11 -9 -17 -27 -17 -52 0 -45 24 -70 52 -55 32 17 32 93
1 110 -13 6 -24 5 -36 -3z m45 -52 c0 -41 -2 -45 -25 -45 -23 0 -25 4 -25 45
0 41 2 45 25 45 23 0 25 -4 25 -45z"/>
<path d="M2345 2260 c-17 -7 -17 -9 -2 -9 13 -1 17 -10 17 -46 0 -33 -4 -45
-15 -45 -8 0 -15 -4 -15 -10 0 -5 18 -10 40 -10 22 0 40 5 40 10 0 6 -7 10
-15 10 -12 0 -15 13 -15 55 0 57 -2 59 -35 45z"/>
<path d="M2455 2260 c-17 -7 -17 -9 -2 -9 13 -1 17 -10 17 -46 0 -33 -4 -45
-15 -45 -8 0 -15 -4 -15 -10 0 -5 18 -10 40 -10 22 0 40 5 40 10 0 6 -7 10
-15 10 -12 0 -15 13 -15 55 0 57 -2 59 -35 45z"/>
<path d="M2565 2260 c-17 -7 -17 -9 -2 -9 13 -1 17 -10 17 -46 0 -33 -4 -45
-15 -45 -8 0 -15 -4 -15 -10 0 -5 11 -10 25 -10 24 0 25 2 25 65 0 67 -1 69
-35 55z"/>
<path d="M848 2013 l-2 -68 -3 58 c-4 59 -5 61 -38 47 -17 -7 -17 -9 -2 -9 13
-1 17 -10 17 -46 0 -33 -4 -45 -15 -45 -8 0 -15 -4 -15 -10 0 -5 14 -10 30
-10 l30 0 -2 -97 c-1 -66 -3 -79 -5 -40 -4 59 -5 61 -38 47 -17 -7 -17 -9 -2
-9 13 -1 17 -10 17 -46 0 -33 -4 -45 -15 -45 -8 0 -15 -4 -15 -10 0 -5 14 -10
30 -10 29 0 30 -2 30 -46 0 -35 -3 -45 -14 -41 -26 10 -48 -17 -48 -58 0 -41
22 -68 48 -58 12 4 14 -13 12 -98 -1 -65 -3 -82 -5 -46 -4 59 -5 61 -38 47
-17 -7 -17 -9 -2 -9 13 -1 17 -10 17 -46 0 -33 -4 -45 -15 -45 -8 0 -15 -4
-15 -10 0 -5 14 -10 30 -10 l30 0 -2 -97 c-1 -66 -3 -79 -5 -40 -4 59 -5 61
-38 47 -17 -7 -17 -9 -2 -9 13 -1 17 -10 17 -46 0 -33 -4 -45 -15 -45 -8 0
-15 -4 -15 -10 0 -5 14 -10 30 -10 29 0 30 -2 30 -46 0 -35 -3 -45 -14 -41
-26 10 -48 -17 -48 -58 0 -41 22 -68 48 -58 12 4 14 -13 12 -98 -1 -65 -3 -82
-5 -46 -4 59 -5 61 -38 47 -17 -7 -17 -9 -2 -9 13 -1 17 -10 17 -46 0 -33 -4
-45 -15 -45 -8 0 -15 -4 -15 -10 0 -5 14 -10 30 -10 30 0 30 -1 30 -55 l0 -55
40 0 40 0 0 -40 c0 -29 -4 -40 -15 -40 -8 0 -15 -4 -15 -10 0 -5 18 -10 40
-10 22 0 40 5 40 10 0 6 -7 10 -15 10 -11 0 -15 11 -15 40 0 37 2 40 29 40 27
0 29 -3 29 -37 0 -44 24 -68 53 -52 18 9 24 30 19 74 -2 22 -28 47 -41 39 -5
-3 -9 17 -9 45 0 62 13 62 75 1 36 -35 42 -45 30 -54 -25 -20 -23 -91 4 -105
30 -17 54 8 53 57 -1 37 1 41 17 32 11 -5 18 -21 19 -42 2 -59 66 -72 74 -16
4 30 32 30 36 0 7 -48 65 -46 74 3 5 27 32 25 36 -3 8 -56 72 -43 74 16 1 33
20 52 52 52 12 0 16 -11 16 -45 0 -33 -4 -45 -15 -45 -8 0 -15 -4 -15 -10 0
-5 18 -10 40 -10 22 0 40 5 40 10 0 6 -6 10 -14 10 -10 0 -15 16 -18 59 -3 57
-2 59 35 87 20 15 37 31 37 36 0 4 16 8 35 8 19 0 35 5 35 10 0 6 -7 10 -15
10 -8 0 -15 3 -15 6 0 10 85 179 91 182 3 1 14 8 24 15 21 16 23 80 4 103 -15
18 -13 92 3 111 15 19 12 82 -5 101 -8 9 -18 34 -22 55 -7 35 -6 37 19 37 14
0 26 5 26 10 0 6 -7 10 -15 10 -12 0 -15 13 -15 55 0 57 -2 59 -35 45 -17 -7
-17 -9 -2 -9 14 -1 17 -10 17 -48 l0 -48 -24 57 c-13 31 -33 73 -45 93 -25 43
-25 45 -6 45 8 0 15 5 15 10 0 6 -7 10 -15 10 -12 0 -15 13 -15 55 0 57 -2 59
-35 45 -17 -7 -17 -9 -2 -9 14 -1 17 -10 17 -47 l0 -46 -45 43 c-25 24 -45 49
-45 57 0 8 -6 12 -14 9 -8 -3 -38 4 -68 15 -74 30 -220 31 -298 3 -53 -19 -62
-21 -87 -24 -7 0 -20 -15 -28 -31 -17 -32 -35 -32 -35 0 0 20 -32 44 -44 33
-3 -3 -6 17 -6 46 0 29 4 50 9 47 19 -12 43 21 43 59 0 38 -24 71 -43 59 -5
-3 -9 18 -9 46 0 28 4 49 9 46 19 -12 43 21 43 59 0 38 -24 71 -43 59 -5 -3
-9 2 -9 10 0 13 -15 16 -90 16 l-90 0 -2 -67z m222 -18 c0 -38 -3 -45 -20 -45
-17 0 -20 7 -20 45 0 38 3 45 20 45 17 0 20 -7 20 -45z m0 -210 c0 -38 -3 -45
-20 -45 -17 0 -20 7 -20 45 0 38 3 45 20 45 17 0 20 -7 20 -45z m-220 -210 c0
-41 -2 -45 -25 -45 -23 0 -25 4 -25 45 0 41 2 45 25 45 23 0 25 -4 25 -45z
m218 3 c-2 -31 -8 -44 -20 -46 -15 -3 -18 4 -18 42 0 40 3 46 21 46 18 0 20
-5 17 -42z m337 -61 c44 -4 115 -46 139 -82 8 -12 15 -41 14 -65 0 -45 8 -60
38 -64 14 -2 22 -17 31 -57 17 -81 16 -139 -2 -139 -12 0 -15 13 -15 55 0 57
-2 59 -35 45 -17 -7 -17 -9 -2 -9 13 -1 17 -10 17 -46 0 -33 -4 -45 -15 -45
-8 0 -15 -4 -15 -10 0 -5 19 -10 41 -10 l42 0 -7 -62 c-3 -35 -10 -76 -15 -93
-8 -27 -9 -25 -10 23 -1 54 -3 56 -36 42 -17 -7 -17 -9 -2 -9 13 -1 17 -10 17
-46 0 -33 -4 -45 -15 -45 -8 0 -15 -4 -15 -10 0 -5 9 -10 20 -10 11 0 20 -2
20 -5 0 -23 -76 -135 -91 -135 -5 0 -9 14 -9 30 0 32 -3 34 -35 20 -17 -7 -17
-9 -2 -9 12 -1 17 -9 17 -30 0 -34 -15 -49 -58 -57 l-32 -6 0 56 c0 58 -2 60
-35 46 -17 -7 -17 -9 -2 -9 13 -1 17 -10 17 -46 0 -42 -2 -44 -32 -50 -18 -3
-46 -2 -63 3 -26 7 -30 13 -33 50 -3 39 -1 42 22 42 24 0 26 -3 27 -47 1 -37
3 -42 8 -23 10 35 2 69 -19 80 -28 15 -52 -10 -52 -53 0 -55 -28 -44 -36 13
-4 31 -28 51 -50 42 -13 -5 -10 -8 11 -10 21 -3 27 -9 27 -28 0 -18 -4 -23
-14 -17 -40 23 -111 139 -97 157 5 6 10 20 11 31 5 47 -1 66 -25 77 -21 9 -25
18 -25 55 0 24 4 42 9 39 4 -3 16 0 26 7 26 20 23 86 -5 107 -19 14 -21 22
-15 51 4 19 13 41 20 49 7 8 16 29 19 45 20 83 103 155 180 155 27 0 46 5 46
11 0 7 10 9 28 5 15 -3 45 -7 67 -9z m189 -164 c16 -32 16 -33 -4 -33 -16 0
-20 7 -20 37 0 41 1 41 24 -4z m-524 -198 c0 -38 -3 -45 -20 -45 -17 0 -20 7
-20 45 0 38 3 45 20 45 17 0 20 -7 20 -45z m767 -22 c-2 -16 -4 -5 -4 22 0 28
2 40 4 28 2 -13 2 -35 0 -50z m-987 -188 c0 -41 -2 -45 -25 -45 -23 0 -25 4
-25 45 0 41 2 45 25 45 23 0 25 -4 25 -45z m220 -2 c0 -54 -15 -48 -25 10 -6
30 -4 37 9 37 12 0 16 -10 16 -47z m770 2 c0 -33 -4 -45 -15 -45 -16 0 -18 12
-9 59 10 46 24 38 24 -14z m-795 -245 c3 -5 1 -10 -4 -10 -6 0 -11 5 -11 10 0
6 2 10 4 10 3 0 8 -4 11 -10z m25 -175 c0 -41 -2 -45 -25 -45 -22 0 -25 4 -25
38 0 43 5 52 32 52 15 0 18 -8 18 -45z m110 0 c0 -41 -2 -45 -25 -45 -23 0
-25 4 -25 45 0 41 2 45 25 45 23 0 25 -4 25 -45z m101 15 c5 0 9 -13 9 -30 0
-25 -4 -30 -25 -30 -22 0 -25 4 -25 36 0 29 3 35 16 30 9 -3 20 -6 25 -6z
m229 -25 c0 -31 -3 -35 -25 -35 -21 0 -25 5 -25 29 0 27 8 34 43 40 4 0 7 -15
7 -34z m-110 -10 c0 -20 -5 -25 -25 -25 -20 0 -25 5 -25 25 0 20 5 25 25 25
20 0 25 -5 25 -25z"/>
<path d="M1135 1417 c-11 -9 -17 -27 -17 -52 0 -45 24 -70 52 -55 32 17 32 93
1 110 -13 6 -24 5 -36 -3z m45 -52 c0 -41 -2 -45 -25 -45 -23 0 -25 4 -25 45
0 41 2 45 25 45 23 0 25 -4 25 -45z"/>
<path d="M1245 1417 c-11 -9 -17 -27 -17 -52 0 -45 24 -70 52 -55 32 17 32 93
1 110 -13 6 -24 5 -36 -3z m45 -52 c0 -41 -2 -45 -25 -45 -23 0 -25 4 -25 45
0 41 2 45 25 45 23 0 25 -4 25 -45z"/>
<path d="M1355 1420 c-17 -7 -17 -9 -2 -9 13 -1 17 -10 17 -46 0 -33 -4 -45
-15 -45 -8 0 -15 -4 -15 -10 0 -5 18 -10 40 -10 22 0 40 5 40 10 0 6 -7 10
-15 10 -12 0 -15 13 -15 55 0 57 -2 59 -35 45z"/>
<path d="M1465 1420 c-17 -7 -17 -9 -2 -9 13 -1 17 -10 17 -46 0 -33 -4 -45
-15 -45 -8 0 -15 -4 -15 -10 0 -5 18 -10 40 -10 22 0 40 5 40 10 0 6 -7 10
-15 10 -12 0 -15 13 -15 55 0 57 -2 59 -35 45z"/>
<path d="M1135 1207 c-11 -9 -17 -27 -17 -52 0 -45 24 -70 52 -55 32 17 32 93
1 110 -13 6 -24 5 -36 -3z m45 -52 c0 -41 -2 -45 -25 -45 -23 0 -25 4 -25 45
0 41 2 45 25 45 23 0 25 -4 25 -45z"/>
<path d="M1245 1207 c-11 -9 -17 -27 -17 -52 0 -45 24 -70 52 -55 32 17 32 93
1 110 -13 6 -24 5 -36 -3z m45 -52 c0 -41 -2 -45 -25 -45 -23 0 -25 4 -25 45
0 41 2 45 25 45 23 0 25 -4 25 -45z"/>
<path d="M1355 1207 c-11 -9 -17 -27 -17 -52 0 -45 24 -70 52 -55 32 17 32 93
1 110 -13 6 -24 5 -36 -3z m45 -52 c0 -41 -2 -45 -25 -45 -23 0 -25 4 -25 45
0 41 2 45 25 45 23 0 25 -4 25 -45z"/>
<path d="M1465 1207 c-11 -9 -17 -27 -17 -52 0 -45 24 -70 52 -55 32 17 32 93
1 110 -13 6 -24 5 -36 -3z m45 -52 c0 -41 -2 -45 -25 -45 -23 0 -25 4 -25 45
0 41 2 45 25 45 23 0 25 -4 25 -45z"/>
<path d="M1135 997 c-11 -9 -17 -27 -17 -52 0 -45 24 -70 52 -55 32 17 32 93
1 110 -13 6 -24 5 -36 -3z m45 -52 c0 -41 -2 -45 -25 -45 -23 0 -25 4 -25 45
0 41 2 45 25 45 23 0 25 -4 25 -45z"/>
<path d="M1245 1000 c-17 -7 -17 -9 -2 -9 13 -1 17 -10 17 -46 0 -33 -4 -45
-15 -45 -8 0 -15 -4 -15 -10 0 -5 18 -10 40 -10 22 0 40 5 40 10 0 6 -7 10
-15 10 -12 0 -15 13 -15 55 0 57 -2 59 -35 45z"/>
<path d="M1355 997 c-11 -9 -17 -27 -17 -52 0 -45 24 -70 52 -55 32 17 32 93
1 110 -13 6 -24 5 -36 -3z m45 -52 c0 -41 -2 -45 -25 -45 -23 0 -25 4 -25 45
0 41 2 45 25 45 23 0 25 -4 25 -45z"/>
<path d="M1465 1000 c-17 -7 -17 -9 -2 -9 13 -1 17 -10 17 -46 0 -33 -4 -45
-15 -45 -8 0 -15 -4 -15 -10 0 -5 18 -10 40 -10 22 0 40 5 40 10 0 6 -7 10
-15 10 -12 0 -15 13 -15 55 0 57 -2 59 -35 45z"/>
<path d="M35 2050 c-17 -7 -17 -9 -2 -9 13 -1 17 -10 17 -46 0 -33 -4 -45 -15
-45 -8 0 -15 -4 -15 -10 0 -5 18 -10 40 -10 22 0 40 5 40 10 0 6 -7 10 -15 10
-12 0 -15 13 -15 55 0 57 -2 59 -35 45z"/>
<path d="M145 2050 c-17 -7 -17 -9 -2 -9 13 -1 17 -10 17 -46 0 -33 -4 -45
-15 -45 -8 0 -15 -4 -15 -10 0 -5 18 -10 40 -10 22 0 40 5 40 10 0 6 -7 10
-15 10 -12 0 -15 13 -15 55 0 57 -2 59 -35 45z"/>
<path d="M255 2047 c-11 -9 -17 -27 -17 -52 0 -45 24 -70 52 -55 32 17 32 93
1 110 -13 6 -24 5 -36 -3z m45 -52 c0 -41 -2 -45 -25 -45 -23 0 -25 4 -25 45
0 41 2 45 25 45 23 0 25 -4 25 -45z"/>
<path d="M365 2047 c-11 -9 -17 -27 -17 -52 0 -45 24 -70 52 -55 32 17 32 93
1 110 -13 6 -24 5 -36 -3z m45 -52 c0 -41 -2 -45 -25 -45 -23 0 -25 4 -25 45
0 41 2 45 25 45 23 0 25 -4 25 -45z"/>
<path d="M475 2050 c-17 -7 -17 -9 -2 -9 13 -1 17 -10 17 -46 0 -33 -4 -45
-15 -45 -8 0 -15 -4 -15 -10 0 -5 18 -10 40 -10 22 0 40 5 40 10 0 6 -7 10
-15 10 -12 0 -15 13 -15 55 0 57 -2 59 -35 45z"/>
<path d="M585 2050 c-17 -7 -17 -9 -2 -9 13 -1 17 -10 17 -46 0 -33 -4 -45
-15 -45 -8 0 -15 -4 -15 -10 0 -5 18 -10 40 -10 22 0 40 5 40 10 0 6 -7 10
-15 10 -12 0 -15 13 -15 55 0 57 -2 59 -35 45z"/>
<path d="M695 2047 c-11 -9 -17 -27 -17 -52 0 -45 24 -70 52 -55 32 17 32 93
1 110 -13 6 -24 5 -36 -3z m45 -52 c0 -41 -2 -45 -25 -45 -23 0 -25 4 -25 45
0 41 2 45 25 45 23 0 25 -4 25 -45z"/>
<path d="M1135 2047 c-11 -9 -17 -27 -17 -52 0 -45 24 -70 52 -55 32 17 32 93
1 110 -13 6 -24 5 -36 -3z m45 -52 c0 -41 -2 -45 -25 -45 -23 0 -25 4 -25 45
0 41 2 45 25 45 23 0 25 -4 25 -45z"/>
<path d="M1245 2047 c-11 -9 -17 -27 -17 -52 0 -45 24 -70 52 -55 32 17 32 93
1 110 -13 6 -24 5 -36 -3z m45 -52 c0 -41 -2 -45 -25 -45 -23 0 -25 4 -25 45
0 41 2 45 25 45 23 0 25 -4 25 -45z"/>
<path d="M1355 2050 c-17 -7 -17 -9 -2 -9 13 -1 17 -10 17 -46 0 -33 -4 -45
-15 -45 -8 0 -15 -4 -15 -10 0 -5 18 -10 40 -10 22 0 40 5 40 10 0 6 -7 10
-15 10 -12 0 -15 13 -15 55 0 57 -2 59 -35 45z"/>
<path d="M1465 2050 c-17 -7 -17 -9 -2 -9 13 -1 17 -10 17 -46 0 -33 -4 -45
-15 -45 -8 0 -15 -4 -15 -10 0 -5 18 -10 40 -10 22 0 40 5 40 10 0 6 -7 10
-15 10 -12 0 -15 13 -15 55 0 57 -2 59 -35 45z"/>
<path d="M1575 2047 c-11 -9 -17 -27 -17 -52 0 -45 24 -70 52 -55 32 17 32 93
1 110 -13 6 -24 5 -36 -3z m45 -52 c0 -41 -2 -45 -25 -45 -23 0 -25 4 -25 45
0 41 2 45 25 45 23 0 25 -4 25 -45z"/>
<path d="M1685 2050 c-17 -7 -17 -9 -2 -9 13 -1 17 -10 17 -46 0 -33 -4 -45
-15 -45 -8 0 -15 -4 -15 -10 0 -5 18 -10 40 -10 22 0 40 5 40 10 0 6 -7 10
-15 10 -12 0 -15 13 -15 55 0 57 -2 59 -35 45z"/>
<path d="M1795 2050 c-17 -7 -17 -9 -2 -9 13 -1 17 -10 17 -46 0 -33 -4 -45
-15 -45 -8 0 -15 -4 -15 -10 0 -5 18 -10 40 -10 22 0 40 5 40 10 0 6 -7 10
-15 10 -12 0 -15 13 -15 55 0 57 -2 59 -35 45z"/>
<path d="M1905 2050 c-17 -7 -17 -9 -2 -9 13 -1 17 -10 17 -46 0 -33 -4 -45
-15 -45 -8 0 -15 -4 -15 -10 0 -5 18 -10 40 -10 22 0 40 5 40 10 0 6 -7 10
-15 10 -12 0 -15 13 -15 55 0 57 -2 59 -35 45z"/>
<path d="M2015 2047 c-11 -9 -17 -27 -17 -52 0 -45 24 -70 52 -55 32 17 32 93
1 110 -13 6 -24 5 -36 -3z m45 -52 c0 -41 -2 -45 -25 -45 -23 0 -25 4 -25 45
0 41 2 45 25 45 23 0 25 -4 25 -45z"/>
<path d="M2125 2050 c-17 -7 -17 -9 -2 -9 13 -1 17 -10 17 -46 0 -33 -4 -45
-15 -45 -8 0 -15 -4 -15 -10 0 -5 18 -10 40 -10 22 0 40 5 40 10 0 6 -7 10
-15 10 -12 0 -15 13 -15 55 0 57 -2 59 -35 45z"/>
<path d="M2235 2047 c-11 -9 -17 -27 -17 -52 0 -45 24 -70 52 -55 32 17 32 93
1 110 -13 6 -24 5 -36 -3z m45 -52 c0 -41 -2 -45 -25 -45 -23 0 -25 4 -25 45
0 41 2 45 25 45 23 0 25 -4 25 -45z"/>
<path d="M2345 2050 c-17 -7 -17 -9 -2 -9 13 -1 17 -10 17 -46 0 -33 -4 -45
-15 -45 -8 0 -15 -4 -15 -10 0 -5 18 -10 40 -10 22 0 40 5 40 10 0 6 -7 10
-15 10 -12 0 -15 13 -15 55 0 57 -2 59 -35 45z"/>
<path d="M2455 2047 c-11 -9 -17 -27 -17 -52 0 -45 24 -70 52 -55 32 17 32 93
1 110 -13 6 -24 5 -36 -3z m45 -52 c0 -41 -2 -45 -25 -45 -23 0 -25 4 -25 45
0 41 2 45 25 45 23 0 25 -4 25 -45z"/>
<path d="M2565 2050 c-17 -7 -17 -9 -2 -9 13 -1 17 -10 17 -46 0 -33 -4 -45
-15 -45 -8 0 -15 -4 -15 -10 0 -5 11 -10 25 -10 24 0 25 2 25 65 0 67 -1 69
-35 55z"/>
<path d="M35 1837 c-23 -18 -23 -86 0 -104 35 -25 66 15 57 75 -5 30 -34 45
-57 29z m45 -52 c0 -41 -2 -45 -25 -45 -23 0 -25 4 -25 45 0 41 2 45 25 45 23
0 25 -4 25 -45z"/>
<path d="M145 1840 c-17 -7 -17 -9 -2 -9 13 -1 17 -10 17 -46 0 -33 -4 -45
-15 -45 -8 0 -15 -4 -15 -10 0 -5 18 -10 40 -10 22 0 40 5 40 10 0 6 -7 10
-15 10 -12 0 -15 13 -15 55 0 57 -2 59 -35 45z"/>
<path d="M255 1837 c-11 -9 -17 -27 -17 -52 0 -45 24 -70 52 -55 32 17 32 93
1 110 -13 6 -24 5 -36 -3z m45 -52 c0 -41 -2 -45 -25 -45 -23 0 -25 4 -25 45
0 41 2 45 25 45 23 0 25 -4 25 -45z"/>
<path d="M365 1840 c-17 -7 -17 -9 -2 -9 13 -1 17 -10 17 -46 0 -33 -4 -45
-15 -45 -8 0 -15 -4 -15 -10 0 -5 18 -10 40 -10 22 0 40 5 40 10 0 6 -7 10
-15 10 -12 0 -15 13 -15 55 0 57 -2 59 -35 45z"/>
<path d="M475 1837 c-11 -9 -17 -27 -17 -52 0 -45 24 -70 52 -55 32 17 32 93
1 110 -13 6 -24 5 -36 -3z m45 -52 c0 -41 -2 -45 -25 -45 -23 0 -25 4 -25 45
0 41 2 45 25 45 23 0 25 -4 25 -45z"/>
<path d="M585 1840 c-17 -7 -17 -9 -2 -9 13 -1 17 -10 17 -46 0 -33 -4 -45
-15 -45 -8 0 -15 -4 -15 -10 0 -5 18 -10 40 -10 22 0 40 5 40 10 0 6 -7 10
-15 10 -12 0 -15 13 -15 55 0 57 -2 59 -35 45z"/>
<path d="M695 1840 c-17 -7 -17 -9 -2 -9 13 -1 17 -10 17 -46 0 -33 -4 -45
-15 -45 -8 0 -15 -4 -15 -10 0 -5 18 -10 40 -10 22 0 40 5 40 10 0 6 -7 10
-15 10 -12 0 -15 13 -15 55 0 57 -2 59 -35 45z"/>
<path d="M1135 1837 c-11 -9 -17 -27 -17 -52 0 -45 24 -70 52 -55 32 17 32 93
1 110 -13 6 -24 5 -36 -3z m45 -52 c0 -41 -2 -45 -25 -45 -23 0 -25 4 -25 45
0 41 2 45 25 45 23 0 25 -4 25 -45z"/>
<path d="M1245 1837 c-11 -9 -17 -27 -17 -52 0 -45 24 -70 52 -55 32 17 32 93
1 110 -13 6 -24 5 -36 -3z m45 -52 c0 -41 -2 -45 -25 -45 -23 0 -25 4 -25 45
0 41 2 45 25 45 23 0 25 -4 25 -45z"/>
<path d="M1355 1837 c-11 -9 -17 -27 -17 -52 0 -45 24 -70 52 -55 32 17 32 93
1 110 -13 6 -24 5 -36 -3z m45 -52 c0 -41 -2 -45 -25 -45 -23 0 -25 4 -25 45
0 41 2 45 25 45 23 0 25 -4 25 -45z"/>
<path d="M1465 1837 c-11 -9 -17 -27 -17 -52 0 -45 24 -70 52 -55 32 17 32 93
1 110 -13 6 -24 5 -36 -3z m45 -52 c0 -41 -2 -45 -25 -45 -23 0 -25 4 -25 45
0 41 2 45 25 45 23 0 25 -4 25 -45z"/>
<path d="M1575 1840 c-17 -7 -17 -9 -2 -9 13 -1 17 -10 17 -46 0 -33 -4 -45
-15 -45 -8 0 -15 -4 -15 -10 0 -5 18 -10 40 -10 22 0 40 5 40 10 0 6 -7 10
-15 10 -12 0 -15 13 -15 55 0 57 -2 59 -35 45z"/>
<path d="M1685 1837 c-11 -9 -17 -27 -17 -52 0 -45 24 -70 52 -55 32 17 32 93
1 110 -13 6 -24 5 -36 -3z m45 -52 c0 -41 -2 -45 -25 -45 -23 0 -25 4 -25 45
0 41 2 45 25 45 23 0 25 -4 25 -45z"/>
<path d="M1795 1837 c-11 -9 -17 -27 -17 -52 0 -45 24 -70 52 -55 32 17 32 93
1 110 -13 6 -24 5 -36 -3z m45 -52 c0 -41 -2 -45 -25 -45 -23 0 -25 4 -25 45
0 41 2 45 25 45 23 0 25 -4 25 -45z"/>
<path d="M1905 1837 c-11 -9 -17 -27 -17 -52 0 -45 24 -70 52 -55 32 17 32 93
1 110 -13 6 -24 5 -36 -3z m45 -52 c0 -41 -2 -45 -25 -45 -23 0 -25 4 -25 45
0 41 2 45 25 45 23 0 25 -4 25 -45z"/>
<path d="M2015 1837 c-11 -9 -17 -27 -17 -52 0 -45 24 -70 52 -55 32 17 32 93
1 110 -13 6 -24 5 -36 -3z m45 -52 c0 -41 -2 -45 -25 -45 -23 0 -25 4 -25 45
0 41 2 45 25 45 23 0 25 -4 25 -45z"/>
<path d="M2125 1837 c-11 -9 -17 -27 -17 -52 0 -45 24 -70 52 -55 32 17 32 93
1 110 -13 6 -24 5 -36 -3z m45 -52 c0 -41 -2 -45 -25 -45 -23 0 -25 4 -25 45
0 41 2 45 25 45 23 0 25 -4 25 -45z"/>
<path d="M2235 1837 c-11 -9 -17 -27 -17 -52 0 -45 24 -70 52 -55 32 17 32 93
1 110 -13 6 -24 5 -36 -3z m45 -52 c0 -41 -2 -45 -25 -45 -23 0 -25 4 -25 45
0 41 2 45 25 45 23 0 25 -4 25 -45z"/>
<path d="M2345 1840 c-17 -7 -17 -9 -2 -9 13 -1 17 -10 17 -46 0 -33 -4 -45
-15 -45 -8 0 -15 -4 -15 -10 0 -5 18 -10 40 -10 22 0 40 5 40 10 0 6 -7 10
-15 10 -12 0 -15 13 -15 55 0 57 -2 59 -35 45z"/>
<path d="M2455 1840 c-17 -7 -17 -9 -2 -9 13 -1 17 -10 17 -46 0 -33 -4 -45
-15 -45 -8 0 -15 -4 -15 -10 0 -5 18 -10 40 -10 22 0 40 5 40 10 0 6 -7 10
-15 10 -12 0 -15 13 -15 55 0 57 -2 59 -35 45z"/>
<path d="M2565 1837 c-37 -28 -9 -134 29 -109 7 4 2 8 -11 10 -20 3 -23 9 -23
47 0 38 3 44 23 47 13 2 18 6 11 10 -6 4 -19 2 -29 -5z"/>
<path d="M35 1627 c-23 -18 -23 -86 0 -104 35 -25 66 15 57 75 -5 30 -34 45
-57 29z m45 -52 c0 -41 -2 -45 -25 -45 -23 0 -25 4 -25 45 0 41 2 45 25 45 23
0 25 -4 25 -45z"/>
<path d="M145 1630 c-17 -7 -17 -9 -2 -9 13 -1 17 -10 17 -46 0 -33 -4 -45
-15 -45 -8 0 -15 -4 -15 -10 0 -5 18 -10 40 -10 22 0 40 5 40 10 0 6 -7 10
-15 10 -12 0 -15 13 -15 55 0 57 -2 59 -35 45z"/>
<path d="M255 1627 c-11 -9 -17 -27 -17 -52 0 -45 24 -70 52 -55 32 17 32 93
1 110 -13 6 -24 5 -36 -3z m45 -52 c0 -41 -2 -45 -25 -45 -23 0 -25 4 -25 45
0 41 2 45 25 45 23 0 25 -4 25 -45z"/>
<path d="M365 1627 c-11 -9 -17 -27 -17 -52 0 -45 24 -70 52 -55 32 17 32 93
1 110 -13 6 -24 5 -36 -3z m45 -52 c0 -41 -2 -45 -25 -45 -23 0 -25 4 -25 45
0 41 2 45 25 45 23 0 25 -4 25 -45z"/>
<path d="M475 1627 c-11 -9 -17 -27 -17 -52 0 -45 24 -70 52 -55 32 17 32 93
1 110 -13 6 -24 5 -36 -3z m45 -52 c0 -41 -2 -45 -25 -45 -23 0 -25 4 -25 45
0 41 2 45 25 45 23 0 25 -4 25 -45z"/>
<path d="M585 1630 c-17 -7 -17 -9 -2 -9 13 -1 17 -10 17 -46 0 -33 -4 -45
-15 -45 -8 0 -15 -4 -15 -10 0 -5 18 -10 40 -10 22 0 40 5 40 10 0 6 -7 10
-15 10 -12 0 -15 13 -15 55 0 57 -2 59 -35 45z"/>
<path d="M695 1630 c-17 -7 -17 -9 -2 -9 13 -1 17 -10 17 -46 0 -33 -4 -45
-15 -45 -8 0 -15 -4 -15 -10 0 -5 18 -10 40 -10 22 0 40 5 40 10 0 6 -7 10
-15 10 -12 0 -15 13 -15 55 0 57 -2 59 -35 45z"/>
<path d="M1795 1627 c-11 -9 -17 -27 -17 -52 0 -45 24 -70 52 -55 32 17 32 93
1 110 -13 6 -24 5 -36 -3z m45 -52 c0 -41 -2 -45 -25 -45 -23 0 -25 4 -25 45
0 41 2 45 25 45 23 0 25 -4 25 -45z"/>
<path d="M1905 1627 c-11 -9 -17 -27 -17 -52 0 -45 24 -70 52 -55 32 17 32 93
1 110 -13 6 -24 5 -36 -3z m45 -52 c0 -41 -2 -45 -25 -45 -23 0 -25 4 -25 45
0 41 2 45 25 45 23 0 25 -4 25 -45z"/>
<path d="M2015 1627 c-11 -9 -17 -27 -17 -52 0 -45 24 -70 52 -55 32 17 32 93
1 110 -13 6 -24 5 -36 -3z m45 -52 c0 -41 -2 -45 -25 -45 -23 0 -25 4 -25 45
0 41 2 45 25 45 23 0 25 -4 25 -45z"/>
<path d="M2125 1627 c-11 -9 -17 -27 -17 -52 0 -45 24 -70 52 -55 32 17 32 93
1 110 -13 6 -24 5 -36 -3z m45 -52 c0 -41 -2 -45 -25 -45 -23 0 -25 4 -25 45
0 41 2 45 25 45 23 0 25 -4 25 -45z"/>
<path d="M2235 1627 c-11 -9 -17 -27 -17 -52 0 -45 24 -70 52 -55 32 17 32 93
1 110 -13 6 -24 5 -36 -3z m45 -52 c0 -41 -2 -45 -25 -45 -23 0 -25 4 -25 45
0 41 2 45 25 45 23 0 25 -4 25 -45z"/>
<path d="M2345 1630 c-17 -7 -17 -9 -2 -9 13 -1 17 -10 17 -46 0 -33 -4 -45
-15 -45 -8 0 -15 -4 -15 -10 0 -5 18 -10 40 -10 22 0 40 5 40 10 0 6 -7 10
-15 10 -12 0 -15 13 -15 55 0 57 -2 59 -35 45z"/>
<path d="M2455 1630 c-17 -7 -17 -9 -2 -9 13 -1 17 -10 17 -46 0 -33 -4 -45
-15 -45 -8 0 -15 -4 -15 -10 0 -5 18 -10 40 -10 22 0 40 5 40 10 0 6 -7 10
-15 10 -12 0 -15 13 -15 55 0 57 -2 59 -35 45z"/>
<path d="M2565 1630 c-17 -7 -17 -9 -2 -9 13 -1 17 -10 17 -46 0 -33 -4 -45
-15 -45 -8 0 -15 -4 -15 -10 0 -5 11 -10 25 -10 24 0 25 2 25 65 0 67 -1 69
-35 55z"/>
<path d="M35 1420 c-17 -7 -17 -9 -2 -9 13 -1 17 -10 17 -46 0 -33 -4 -45 -15
-45 -8 0 -15 -4 -15 -10 0 -5 18 -10 40 -10 22 0 40 5 40 10 0 6 -7 10 -15 10
-12 0 -15 13 -15 55 0 57 -2 59 -35 45z"/>
<path d="M145 1420 c-17 -7 -17 -9 -2 -9 13 -1 17 -10 17 -46 0 -33 -4 -45
-15 -45 -8 0 -15 -4 -15 -10 0 -5 18 -10 40 -10 22 0 40 5 40 10 0 6 -7 10
-15 10 -12 0 -15 13 -15 55 0 57 -2 59 -35 45z"/>
<path d="M255 1417 c-11 -9 -17 -27 -17 -52 0 -45 24 -70 52 -55 32 17 32 93
1 110 -13 6 -24 5 -36 -3z m45 -52 c0 -41 -2 -45 -25 -45 -23 0 -25 4 -25 45
0 41 2 45 25 45 23 0 25 -4 25 -45z"/>
<path d="M365 1417 c-19 -15 -24 -82 -6 -100 16 -16 14 -107 -1 -107 -9 0 -8
-4 2 -10 12 -8 9 -10 -13 -10 -15 0 -38 7 -51 15 -33 22 -58 1 -58 -50 0 -45
24 -70 53 -55 25 14 48 12 65 -4 17 -17 19 -87 3 -103 -14 -14 -14 -82 0 -96
6 -6 11 -32 11 -57 0 -25 -5 -51 -11 -57 -19 -19 -13 -83 10 -104 12 -11 21
-26 21 -33 0 -8 15 -28 34 -44 30 -26 35 -37 34 -73 -1 -50 22 -75 53 -58 18
9 24 31 20 71 -2 14 5 18 33 18 35 0 36 -1 36 -40 0 -29 -4 -40 -15 -40 -8 0
-15 -4 -15 -10 0 -5 18 -10 40 -10 22 0 40 5 40 10 0 6 -7 10 -15 10 -11 0
-15 11 -15 40 0 35 3 40 23 40 12 0 32 3 45 6 20 6 22 3 22 -40 0 -34 -4 -46
-15 -46 -8 0 -15 -4 -15 -10 0 -5 18 -10 40 -10 22 0 40 5 40 10 0 6 -7 10
-15 10 -12 0 -15 13 -15 55 0 54 -1 55 -25 49 -23 -6 -25 -4 -25 30 l0 36 -77
0 c-43 0 -85 5 -93 10 -12 8 -11 10 8 10 12 0 22 5 22 10 0 6 -7 10 -15 10
-12 0 -15 13 -15 56 0 51 -2 55 -20 49 -18 -6 -20 -2 -20 45 0 41 3 51 14 47
26 -10 48 17 48 58 0 41 -22 68 -48 58 -11 -4 -14 6 -14 45 0 42 3 51 18 51 9
0 32 3 50 7 21 4 32 2 32 -5 0 -6 17 -11 40 -11 22 0 40 5 40 10 0 6 7 10 15
10 8 0 15 -4 15 -10 0 -5 18 -10 40 -10 22 0 40 5 40 10 0 6 -7 10 -15 10 -12
0 -15 13 -15 55 0 57 -2 59 -35 45 -17 -7 -17 -9 -2 -9 13 -1 17 -10 17 -46 0
-33 -4 -45 -15 -45 -11 0 -15 11 -15 40 0 38 -2 40 -30 40 -21 0 -30 5 -30 16
0 11 -5 14 -16 10 -9 -3 -21 -6 -27 -7 -7 0 -3 -4 8 -9 16 -7 14 -9 -15 -9
-19 0 -43 6 -53 14 -11 7 -25 11 -33 8 -11 -4 -14 6 -14 41 0 46 0 46 35 46
19 0 35 5 35 10 0 6 -7 10 -15 10 -12 0 -15 13 -15 55 0 57 -2 59 -35 45 -17
-7 -17 -9 -2 -9 13 -1 17 -10 17 -46 0 -25 -4 -45 -10 -45 -5 0 -10 11 -10 25
0 20 -5 25 -25 25 -18 0 -25 5 -25 20 0 27 -32 43 -55 27z m45 -27 c0 -13 -7
-20 -19 -20 -14 0 -21 -8 -24 -27 -2 -17 -5 -10 -6 20 -1 44 1 47 24 47 18 0
25 -5 25 -20z m-118 -235 c-3 -36 -8 -45 -23 -45 -16 0 -19 7 -19 45 0 40 2
45 23 45 20 0 22 -4 19 -45z m221 38 c-7 -2 -21 -2 -30 0 -10 3 -4 5 12 5 17
0 24 -2 18 -5z m-146 -270 c-2 -16 -4 -5 -4 22 0 28 2 40 4 28 2 -13 2 -35 0
-50z m153 22 c0 -41 -2 -45 -25 -45 -23 0 -25 4 -25 45 0 41 2 45 25 45 23 0
25 -4 25 -45z m-153 -232 c-2 -16 -4 -5 -4 22 0 28 2 40 4 28 2 -13 2 -35 0
-50z m123 20 c0 -35 -3 -44 -10 -33 -13 20 -13 80 0 80 6 0 10 -21 10 -47z
m14 -169 c11 -4 16 -19 16 -45 0 -35 -3 -39 -25 -39 -23 0 -25 4 -25 45 0 45
5 50 34 39z"/>
<path d="M585 1420 c-17 -7 -17 -9 -2 -9 13 -1 17 -10 17 -46 0 -33 -4 -45
-15 -45 -8 0 -15 -4 -15 -10 0 -5 18 -10 40 -10 22 0 40 5 40 10 0 6 -7 10
-15 10 -12 0 -15 13 -15 55 0 57 -2 59 -35 45z"/>
<path d="M695 1417 c-11 -9 -17 -27 -17 -52 0 -45 24 -70 52 -55 32 17 32 93
1 110 -13 6 -24 5 -36 -3z m45 -52 c0 -41 -2 -45 -25 -45 -23 0 -25 4 -25 45
0 41 2 45 25 45 23 0 25 -4 25 -45z"/>
<path d="M1905 1420 c-17 -7 -17 -9 -2 -9 13 -1 17 -10 17 -46 0 -33 -4 -45
-15 -45 -8 0 -15 -4 -15 -10 0 -5 18 -10 40 -10 22 0 40 5 40 10 0 6 -7 10
-15 10 -12 0 -15 13 -15 55 0 57 -2 59 -35 45z"/>
<path d="M2014 1416 c-15 -12 -19 -31 -22 -120 -3 -58 -8 -106 -13 -106 -6 0
-20 7 -33 15 -33 22 -58 1 -58 -50 0 -45 24 -70 53 -55 48 26 49 24 49 -194 0
-218 6 -252 49 -300 17 -19 20 -27 9 -23 -44 16 -73 -80 -33 -110 38 -27 69
19 54 80 -5 18 -4 27 4 27 22 0 39 -17 37 -36 -5 -42 1 -64 19 -73 29 -16 53
8 53 52 0 30 4 37 20 37 12 0 19 -6 17 -17 -4 -41 2 -63 20 -72 35 -19 51 6
57 97 l6 82 -78 0 c-44 0 -86 5 -94 10 -11 7 -5 10 23 10 20 0 37 5 37 10 0 6
-7 10 -15 10 -12 0 -15 13 -15 55 0 57 -2 59 -35 45 -17 -7 -17 -9 -2 -9 26
-1 25 -87 -2 -94 -28 -7 -31 13 -31 231 0 197 2 206 39 183 7 -5 25 -4 42 2
21 8 37 8 57 1 45 -17 72 1 72 47 0 27 -6 42 -22 53 -19 14 -24 14 -50 -2 -26
-15 -30 -15 -57 1 -25 14 -30 15 -47 2 -10 -8 -22 -15 -26 -15 -5 0 -8 41 -8
90 0 53 -4 90 -10 90 -5 0 -10 9 -10 20 0 28 -32 43 -56 26z m46 -26 c0 -15
-7 -20 -25 -20 -18 0 -25 5 -25 20 0 15 7 20 25 20 18 0 25 -5 25 -20z m-127
-197 c-18 -3 -23 -13 -26 -46 l-4 -42 -1 48 c-2 45 -1 47 26 46 22 -1 23 -2 5
-6z m230 0 c-7 -2 -21 -2 -30 0 -10 3 -4 5 12 5 17 0 24 -2 18 -5z m110 0 c-7
-2 -21 -2 -30 0 -10 3 -4 5 12 5 17 0 24 -2 18 -5z m-213 -668 c0 -41 -2 -45
-25 -45 -23 0 -25 4 -25 45 0 41 2 45 25 45 23 0 25 -4 25 -45z m110 -5 c0
-36 -2 -40 -25 -40 -22 0 -25 4 -25 40 0 36 3 40 25 40 23 0 25 -4 25 -40z
m110 0 c0 -36 -2 -40 -25 -40 -22 0 -25 4 -25 40 0 36 3 40 25 40 23 0 25 -4
25 -40z"/>
<path d="M2125 1420 c-17 -7 -17 -9 -2 -9 13 -1 17 -10 17 -46 0 -33 -4 -45
-15 -45 -8 0 -15 -4 -15 -10 0 -5 18 -10 40 -10 22 0 40 5 40 10 0 6 -7 10
-15 10 -12 0 -15 13 -15 55 0 57 -2 59 -35 45z"/>
<path d="M2235 1417 c-11 -9 -17 -27 -17 -52 0 -45 24 -70 52 -55 32 17 32 93
1 110 -13 6 -24 5 -36 -3z m45 -52 c0 -41 -2 -45 -25 -45 -23 0 -25 4 -25 45
0 41 2 45 25 45 23 0 25 -4 25 -45z"/>
<path d="M2345 1420 c-17 -7 -17 -9 -2 -9 13 -1 17 -10 17 -46 0 -33 -4 -45
-15 -45 -8 0 -15 -4 -15 -10 0 -5 18 -10 40 -10 22 0 40 5 40 10 0 6 -7 10
-15 10 -12 0 -15 13 -15 55 0 57 -2 59 -35 45z"/>
<path d="M2455 1417 c-11 -9 -17 -27 -17 -52 0 -45 24 -70 52 -55 32 17 32 93
1 110 -13 6 -24 5 -36 -3z m45 -52 c0 -41 -2 -45 -25 -45 -23 0 -25 4 -25 45
0 41 2 45 25 45 23 0 25 -4 25 -45z"/>
<path d="M2565 1420 c-17 -7 -17 -9 -2 -9 13 -1 17 -10 17 -46 0 -33 -4 -45
-15 -45 -8 0 -15 -4 -15 -10 0 -5 11 -10 25 -10 24 0 25 2 25 65 0 67 -1 69
-35 55z"/>
<path d="M35 1207 c-23 -18 -23 -86 0 -104 35 -25 66 15 57 75 -5 30 -34 45
-57 29z m45 -52 c0 -41 -2 -45 -25 -45 -23 0 -25 4 -25 45 0 41 2 45 25 45 23
0 25 -4 25 -45z"/>
<path d="M145 1210 c-17 -7 -17 -9 -2 -9 13 -1 17 -10 17 -46 0 -33 -4 -45
-15 -45 -8 0 -15 -4 -15 -10 0 -5 18 -10 40 -10 22 0 40 5 40 10 0 6 -7 10
-15 10 -12 0 -15 13 -15 55 0 57 -2 59 -35 45z"/>
<path d="M2345 1210 c-17 -7 -17 -9 -2 -9 13 -1 17 -10 17 -46 0 -33 -4 -45
-15 -45 -8 0 -15 -4 -15 -10 0 -5 18 -10 40 -10 22 0 40 5 40 10 0 6 -7 10
-15 10 -12 0 -15 13 -15 55 0 57 -2 59 -35 45z"/>
<path d="M2455 1210 c-17 -7 -17 -9 -2 -9 13 -1 17 -10 17 -46 0 -33 -4 -45
-15 -45 -8 0 -15 -4 -15 -10 0 -5 18 -10 40 -10 22 0 40 5 40 10 0 6 -7 10
-15 10 -12 0 -15 13 -15 55 0 57 -2 59 -35 45z"/>
<path d="M2565 1207 c-37 -28 -9 -134 29 -109 7 4 2 8 -11 10 -20 3 -23 9 -23
47 0 38 3 44 23 47 13 2 18 6 11 10 -6 4 -19 2 -29 -5z"/>
<path d="M35 997 c-23 -18 -23 -86 0 -104 35 -25 66 15 57 75 -5 30 -34 45
-57 29z m45 -52 c0 -41 -2 -45 -25 -45 -23 0 -25 4 -25 45 0 41 2 45 25 45 23
0 25 -4 25 -45z"/>
<path d="M145 1000 c-17 -7 -17 -9 -2 -9 13 -1 17 -10 17 -46 0 -33 -4 -45
-15 -45 -8 0 -15 -4 -15 -10 0 -5 18 -10 40 -10 22 0 40 5 40 10 0 6 -7 10
-15 10 -12 0 -15 13 -15 55 0 57 -2 59 -35 45z"/>
<path d="M255 997 c-23 -18 -23 -86 0 -104 35 -25 66 15 57 75 -5 30 -34 45
-57 29z m45 -52 c0 -41 -2 -45 -25 -45 -23 0 -25 4 -25 45 0 41 2 45 25 45 23
0 25 -4 25 -45z"/>
<path d="M585 1000 c-17 -7 -17 -9 -2 -9 13 -1 17 -10 17 -46 0 -33 -4 -45
-15 -45 -8 0 -15 -4 -15 -10 0 -5 18 -10 40 -10 22 0 40 5 40 10 0 6 -7 10
-15 10 -12 0 -15 13 -15 55 0 57 -2 59 -35 45z"/>
<path d="M695 1000 c-17 -7 -17 -9 -2 -9 13 -1 17 -10 17 -46 0 -33 -4 -45
-15 -45 -8 0 -15 -4 -15 -10 0 -5 18 -10 40 -10 22 0 40 5 40 10 0 6 -7 10
-15 10 -12 0 -15 13 -15 55 0 57 -2 59 -35 45z"/>
<path d="M1905 997 c-11 -9 -17 -27 -17 -52 0 -45 24 -70 52 -55 32 17 32 93
1 110 -13 6 -24 5 -36 -3z m45 -52 c0 -41 -2 -45 -25 -45 -23 0 -25 4 -25 45
0 41 2 45 25 45 23 0 25 -4 25 -45z"/>
<path d="M2125 997 c-11 -9 -17 -27 -17 -52 0 -45 24 -70 52 -55 32 17 32 93
1 110 -13 6 -24 5 -36 -3z m45 -52 c0 -41 -2 -45 -25 -45 -23 0 -25 4 -25 45
0 41 2 45 25 45 23 0 25 -4 25 -45z"/>
<path d="M2235 997 c-11 -9 -17 -27 -17 -52 0 -45 24 -70 52 -55 32 17 32 93
1 110 -13 6 -24 5 -36 -3z m45 -52 c0 -41 -2 -45 -25 -45 -23 0 -25 4 -25 45
0 41 2 45 25 45 23 0 25 -4 25 -45z"/>
<path d="M2345 1000 c-17 -7 -17 -9 -2 -9 13 -1 17 -10 17 -46 0 -33 -4 -45
-15 -45 -8 0 -15 -4 -15 -10 0 -5 18 -10 40 -10 22 0 40 5 40 10 0 6 -7 10
-15 10 -12 0 -15 13 -15 55 0 57 -2 59 -35 45z"/>
<path d="M2455 1000 c-17 -7 -17 -9 -2 -9 13 -1 17 -10 17 -46 0 -33 -4 -45
-15 -45 -8 0 -15 -4 -15 -10 0 -5 18 -10 40 -10 22 0 40 5 40 10 0 6 -7 10
-15 10 -12 0 -15 13 -15 55 0 57 -2 59 -35 45z"/>
<path d="M2565 1000 c-17 -7 -17 -9 -2 -9 13 -1 17 -10 17 -46 0 -33 -4 -45
-15 -45 -8 0 -15 -4 -15 -10 0 -5 11 -10 25 -10 24 0 25 2 25 65 0 67 -1 69
-35 55z"/>
<path d="M35 790 c-17 -7 -17 -9 -2 -9 13 -1 17 -10 17 -46 0 -33 -4 -45 -15
-45 -8 0 -15 -4 -15 -10 0 -5 18 -10 40 -10 22 0 40 5 40 10 0 6 -7 10 -15 10
-12 0 -15 13 -15 55 0 57 -2 59 -35 45z"/>
<path d="M145 790 c-17 -7 -17 -9 -2 -9 13 -1 17 -10 17 -46 0 -33 -4 -45 -15
-45 -8 0 -15 -4 -15 -10 0 -5 18 -10 40 -10 22 0 40 5 40 10 0 6 -7 10 -15 10
-12 0 -15 13 -15 55 0 57 -2 59 -35 45z"/>
<path d="M255 787 c-23 -18 -23 -86 0 -104 35 -25 66 15 57 75 -5 30 -34 45
-57 29z m45 -52 c0 -41 -2 -45 -25 -45 -23 0 -25 4 -25 45 0 41 2 45 25 45 23
0 25 -4 25 -45z"/>
<path d="M585 790 c-17 -7 -17 -9 -2 -9 13 -1 17 -10 17 -46 0 -33 -4 -45 -15
-45 -8 0 -15 -4 -15 -10 0 -5 18 -10 40 -10 22 0 40 5 40 10 0 6 -7 10 -15 10
-12 0 -15 13 -15 55 0 57 -2 59 -35 45z"/>
<path d="M695 787 c-11 -9 -17 -27 -17 -52 0 -45 24 -70 52 -55 32 17 32 93 1
110 -13 6 -24 5 -36 -3z m45 -52 c0 -41 -2 -45 -25 -45 -23 0 -25 4 -25 45 0
41 2 45 25 45 23 0 25 -4 25 -45z"/>
<path d="M1795 790 c-17 -7 -17 -9 -2 -9 13 -1 17 -10 17 -46 0 -33 -4 -45
-15 -45 -8 0 -15 -4 -15 -10 0 -5 18 -10 40 -10 22 0 40 5 40 10 0 6 -7 10
-15 10 -12 0 -15 13 -15 55 0 57 -2 59 -35 45z"/>
<path d="M1905 790 c-17 -7 -17 -9 -2 -9 13 -1 17 -10 17 -46 0 -33 -4 -45
-15 -45 -8 0 -15 -4 -15 -10 0 -5 18 -10 40 -10 22 0 40 5 40 10 0 6 -7 10
-15 10 -12 0 -15 13 -15 55 0 57 -2 59 -35 45z"/>
<path d="M2235 787 c-11 -9 -17 -27 -17 -52 0 -45 24 -70 52 -55 32 17 32 93
1 110 -13 6 -24 5 -36 -3z m45 -52 c0 -41 -2 -45 -25 -45 -23 0 -25 4 -25 45
0 41 2 45 25 45 23 0 25 -4 25 -45z"/>
<path d="M2345 790 c-17 -7 -17 -9 -2 -9 13 -1 17 -10 17 -46 0 -33 -4 -45
-15 -45 -8 0 -15 -4 -15 -10 0 -5 18 -10 40 -10 22 0 40 5 40 10 0 6 -7 10
-15 10 -12 0 -15 13 -15 55 0 57 -2 59 -35 45z"/>
<path d="M2455 787 c-11 -9 -17 -27 -17 -52 0 -45 24 -70 52 -55 32 17 32 93
1 110 -13 6 -24 5 -36 -3z m45 -52 c0 -41 -2 -45 -25 -45 -23 0 -25 4 -25 45
0 41 2 45 25 45 23 0 25 -4 25 -45z"/>
<path d="M2565 790 c-17 -7 -17 -9 -2 -9 13 -1 17 -10 17 -46 0 -33 -4 -45
-15 -45 -8 0 -15 -4 -15 -10 0 -5 11 -10 25 -10 24 0 25 2 25 65 0 67 -1 69
-35 55z"/>
<path d="M35 577 c-11 -9 -17 -27 -17 -52 0 -45 24 -70 52 -55 32 17 32 93 1
110 -13 6 -24 5 -36 -3z m45 -52 c0 -41 -2 -45 -25 -45 -23 0 -25 4 -25 45 0
41 2 45 25 45 23 0 25 -4 25 -45z"/>
<path d="M145 580 c-17 -7 -17 -9 -2 -9 13 -1 17 -10 17 -46 0 -33 -4 -45 -15
-45 -8 0 -15 -4 -15 -10 0 -5 18 -10 40 -10 22 0 40 5 40 10 0 6 -7 10 -15 10
-12 0 -15 13 -15 55 0 57 -2 59 -35 45z"/>
<path d="M255 577 c-11 -9 -17 -27 -17 -52 0 -45 24 -70 52 -55 32 17 32 93 1
110 -13 6 -24 5 -36 -3z m45 -52 c0 -41 -2 -45 -25 -45 -23 0 -25 4 -25 45 0
41 2 45 25 45 23 0 25 -4 25 -45z"/>
<path d="M365 580 c-17 -7 -17 -9 -2 -9 13 -1 17 -10 17 -46 0 -33 -4 -45 -15
-45 -8 0 -15 -4 -15 -10 0 -5 18 -10 40 -10 22 0 40 5 40 10 0 6 -7 10 -15 10
-12 0 -15 13 -15 55 0 57 -2 59 -35 45z"/>
<path d="M805 580 c-17 -7 -17 -9 -2 -9 13 -1 17 -10 17 -46 0 -33 -4 -45 -15
-45 -8 0 -15 -4 -15 -10 0 -5 18 -10 40 -10 22 0 40 5 40 10 0 6 -7 10 -15 10
-12 0 -15 13 -15 55 0 57 -2 59 -35 45z"/>
<path d="M1685 577 c-11 -9 -17 -27 -17 -52 0 -45 24 -70 52 -55 32 17 32 93
1 110 -13 6 -24 5 -36 -3z m45 -52 c0 -41 -2 -45 -25 -45 -23 0 -25 4 -25 45
0 41 2 45 25 45 23 0 25 -4 25 -45z"/>
<path d="M1795 577 c-11 -9 -17 -27 -17 -52 0 -45 24 -70 52 -55 32 17 32 93
1 110 -13 6 -24 5 -36 -3z m45 -52 c0 -41 -2 -45 -25 -45 -23 0 -25 4 -25 45
0 41 2 45 25 45 23 0 25 -4 25 -45z"/>
<path d="M1905 577 c-11 -9 -17 -27 -17 -52 0 -45 24 -70 52 -55 32 17 32 93
1 110 -13 6 -24 5 -36 -3z m45 -52 c0 -41 -2 -45 -25 -45 -23 0 -25 4 -25 45
0 41 2 45 25 45 23 0 25 -4 25 -45z"/>
<path d="M2345 580 c-17 -7 -17 -9 -2 -9 13 -1 17 -10 17 -46 0 -33 -4 -45
-15 -45 -8 0 -15 -4 -15 -10 0 -5 18 -10 40 -10 22 0 40 5 40 10 0 6 -7 10
-15 10 -12 0 -15 13 -15 55 0 57 -2 59 -35 45z"/>
<path d="M2455 580 c-17 -7 -17 -9 -2 -9 13 -1 17 -10 17 -46 0 -33 -4 -45
-15 -45 -8 0 -15 -4 -15 -10 0 -5 18 -10 40 -10 22 0 40 5 40 10 0 6 -7 10
-15 10 -12 0 -15 13 -15 55 0 57 -2 59 -35 45z"/>
<path d="M2565 577 c-37 -28 -9 -134 29 -109 7 4 2 8 -11 10 -20 3 -23 9 -23
47 0 38 3 44 23 47 13 2 18 6 11 10 -6 4 -19 2 -29 -5z"/>
<path d="M35 367 c-23 -18 -23 -86 0 -104 35 -25 66 15 57 75 -5 30 -34 45
-57 29z m45 -52 c0 -41 -2 -45 -25 -45 -23 0 -25 4 -25 45 0 41 2 45 25 45 23
0 25 -4 25 -45z"/>
<path d="M145 370 c-17 -7 -17 -9 -2 -9 13 -1 17 -10 17 -46 0 -33 -4 -45 -15
-45 -8 0 -15 -4 -15 -10 0 -5 18 -10 40 -10 22 0 40 5 40 10 0 6 -7 10 -15 10
-12 0 -15 13 -15 55 0 57 -2 59 -35 45z"/>
<path d="M255 367 c-11 -9 -17 -27 -17 -52 0 -45 24 -70 52 -55 32 17 32 93 1
110 -13 6 -24 5 -36 -3z m45 -52 c0 -41 -2 -45 -25 -45 -23 0 -25 4 -25 45 0
41 2 45 25 45 23 0 25 -4 25 -45z"/>
<path d="M365 367 c-11 -9 -17 -27 -17 -52 0 -45 24 -70 52 -55 32 17 32 93 1
110 -13 6 -24 5 -36 -3z m45 -52 c0 -41 -2 -45 -25 -45 -23 0 -25 4 -25 45 0
41 2 45 25 45 23 0 25 -4 25 -45z"/>
<path d="M475 367 c-11 -9 -17 -27 -17 -52 0 -45 24 -70 52 -55 32 17 32 93 1
110 -13 6 -24 5 -36 -3z m45 -52 c0 -41 -2 -45 -25 -45 -23 0 -25 4 -25 45 0
41 2 45 25 45 23 0 25 -4 25 -45z"/>
<path d="M585 370 c-17 -7 -17 -9 -2 -9 13 -1 17 -10 17 -46 0 -33 -4 -45 -15
-45 -8 0 -15 -4 -15 -10 0 -5 18 -10 40 -10 22 0 40 5 40 10 0 6 -7 10 -15 10
-12 0 -15 13 -15 55 0 57 -2 59 -35 45z"/>
<path d="M695 370 c-17 -7 -17 -9 -2 -9 13 -1 17 -10 17 -46 0 -33 -4 -45 -15
-45 -8 0 -15 -4 -15 -10 0 -5 18 -10 40 -10 22 0 40 5 40 10 0 6 -7 10 -15 10
-12 0 -15 13 -15 55 0 57 -2 59 -35 45z"/>
<path d="M805 367 c-23 -18 -23 -86 0 -104 35 -25 66 15 57 75 -5 30 -34 45
-57 29z m45 -52 c0 -41 -2 -45 -25 -45 -23 0 -25 4 -25 45 0 41 2 45 25 45 23
0 25 -4 25 -45z"/>
<path d="M915 370 c-17 -7 -17 -9 -2 -9 13 -1 17 -10 17 -46 0 -33 -4 -45 -15
-45 -8 0 -15 -4 -15 -10 0 -5 18 -10 40 -10 22 0 40 5 40 10 0 6 -7 10 -15 10
-12 0 -15 13 -15 55 0 57 -2 59 -35 45z"/>
<path d="M1025 367 c-23 -18 -23 -86 0 -104 35 -25 66 15 57 75 -5 30 -34 45
-57 29z m45 -52 c0 -41 -2 -45 -25 -45 -23 0 -25 4 -25 45 0 41 2 45 25 45 23
0 25 -4 25 -45z"/>
<path d="M1135 367 c-23 -18 -23 -86 0 -104 35 -25 66 15 57 75 -5 30 -34 45
-57 29z m45 -52 c0 -41 -2 -45 -25 -45 -23 0 -25 4 -25 45 0 41 2 45 25 45 23
0 25 -4 25 -45z"/>
<path d="M1245 370 c-17 -7 -17 -9 -2 -9 13 -1 17 -10 17 -46 0 -33 -4 -45
-15 -45 -8 0 -15 -4 -15 -10 0 -5 18 -10 40 -10 22 0 40 5 40 10 0 6 -7 10
-15 10 -12 0 -15 13 -15 55 0 57 -2 59 -35 45z"/>
<path d="M1355 367 c-11 -9 -17 -27 -17 -52 0 -45 24 -70 52 -55 32 17 32 93
1 110 -13 6 -24 5 -36 -3z m45 -52 c0 -41 -2 -45 -25 -45 -23 0 -25 4 -25 45
0 41 2 45 25 45 23 0 25 -4 25 -45z"/>
<path d="M1465 370 c-17 -7 -17 -9 -2 -9 13 -1 17 -10 17 -46 0 -33 -4 -45
-15 -45 -8 0 -15 -4 -15 -10 0 -5 18 -10 40 -10 22 0 40 5 40 10 0 6 -7 10
-15 10 -12 0 -15 13 -15 55 0 57 -2 59 -35 45z"/>
<path d="M1575 370 c-17 -7 -17 -9 -2 -9 13 -1 17 -10 17 -46 0 -33 -4 -45
-15 -45 -8 0 -15 -4 -15 -10 0 -5 18 -10 40 -10 22 0 40 5 40 10 0 6 -7 10
-15 10 -12 0 -15 13 -15 55 0 57 -2 59 -35 45z"/>
<path d="M1685 370 c-17 -7 -17 -9 -2 -9 13 -1 17 -10 17 -46 0 -33 -4 -45
-15 -45 -8 0 -15 -4 -15 -10 0 -5 18 -10 40 -10 22 0 40 5 40 10 0 6 -7 10
-15 10 -12 0 -15 13 -15 55 0 57 -2 59 -35 45z"/>
<path d="M1795 367 c-11 -9 -17 -27 -17 -52 0 -45 24 -70 52 -55 32 17 32 93
1 110 -13 6 -24 5 -36 -3z m45 -52 c0 -41 -2 -45 -25 -45 -23 0 -25 4 -25 45
0 41 2 45 25 45 23 0 25 -4 25 -45z"/>
<path d="M1905 367 c-11 -9 -17 -27 -17 -52 0 -45 24 -70 52 -55 32 17 32 93
1 110 -13 6 -24 5 -36 -3z m45 -52 c0 -41 -2 -45 -25 -45 -23 0 -25 4 -25 45
0 41 2 45 25 45 23 0 25 -4 25 -45z"/>
<path d="M2015 367 c-11 -9 -17 -27 -17 -52 0 -45 24 -70 52 -55 32 17 32 93
1 110 -13 6 -24 5 -36 -3z m45 -52 c0 -41 -2 -45 -25 -45 -23 0 -25 4 -25 45
0 41 2 45 25 45 23 0 25 -4 25 -45z"/>
<path d="M2125 367 c-11 -9 -17 -27 -17 -52 0 -45 24 -70 52 -55 32 17 32 93
1 110 -13 6 -24 5 -36 -3z m45 -52 c0 -41 -2 -45 -25 -45 -23 0 -25 4 -25 45
0 41 2 45 25 45 23 0 25 -4 25 -45z"/>
<path d="M2235 367 c-11 -9 -17 -27 -17 -52 0 -45 24 -70 52 -55 32 17 32 93
1 110 -13 6 -24 5 -36 -3z m45 -52 c0 -41 -2 -45 -25 -45 -23 0 -25 4 -25 45
0 41 2 45 25 45 23 0 25 -4 25 -45z"/>
<path d="M2345 370 c-17 -7 -17 -9 -2 -9 13 -1 17 -10 17 -46 0 -33 -4 -45
-15 -45 -8 0 -15 -4 -15 -10 0 -5 18 -10 40 -10 22 0 40 5 40 10 0 6 -7 10
-15 10 -12 0 -15 13 -15 55 0 57 -2 59 -35 45z"/>
<path d="M2455 370 c-17 -7 -17 -9 -2 -9 13 -1 17 -10 17 -46 0 -33 -4 -45
-15 -45 -8 0 -15 -4 -15 -10 0 -5 18 -10 40 -10 22 0 40 5 40 10 0 6 -7 10
-15 10 -12 0 -15 13 -15 55 0 57 -2 59 -35 45z"/>
<path d="M2565 370 c-17 -7 -17 -9 -2 -9 13 -1 17 -10 17 -46 0 -33 -4 -45
-15 -45 -8 0 -15 -4 -15 -10 0 -5 11 -10 25 -10 24 0 25 2 25 65 0 67 -1 69
-35 55z"/>
<path d="M35 160 c-17 -7 -17 -9 -2 -9 13 -1 17 -10 17 -46 0 -33 -4 -45 -15
-45 -8 0 -15 -4 -15 -10 0 -5 18 -10 40 -10 22 0 40 5 40 10 0 6 -7 10 -15 10
-12 0 -15 13 -15 55 0 57 -2 59 -35 45z"/>
<path d="M145 160 c-17 -7 -17 -9 -2 -9 13 -1 17 -10 17 -46 0 -33 -4 -45 -15
-45 -8 0 -15 -4 -15 -10 0 -5 18 -10 40 -10 22 0 40 5 40 10 0 6 -7 10 -15 10
-12 0 -15 13 -15 55 0 57 -2 59 -35 45z"/>
<path d="M255 157 c-11 -9 -17 -27 -17 -52 0 -45 24 -70 52 -55 32 17 32 93 1
110 -13 6 -24 5 -36 -3z m45 -52 c0 -41 -2 -45 -25 -45 -23 0 -25 4 -25 45 0
41 2 45 25 45 23 0 25 -4 25 -45z"/>
<path d="M365 157 c-11 -9 -17 -27 -17 -52 0 -45 24 -70 52 -55 32 17 32 93 1
110 -13 6 -24 5 -36 -3z m45 -52 c0 -41 -2 -45 -25 -45 -23 0 -25 4 -25 45 0
41 2 45 25 45 23 0 25 -4 25 -45z"/>
<path d="M475 160 c-17 -7 -17 -9 -2 -9 13 -1 17 -10 17 -46 0 -33 -4 -45 -15
-45 -8 0 -15 -4 -15 -10 0 -5 18 -10 40 -10 22 0 40 5 40 10 0 6 -7 10 -15 10
-12 0 -15 13 -15 55 0 57 -2 59 -35 45z"/>
<path d="M585 160 c-17 -7 -17 -9 -2 -9 13 -1 17 -10 17 -46 0 -33 -4 -45 -15
-45 -8 0 -15 -4 -15 -10 0 -5 18 -10 40 -10 22 0 40 5 40 10 0 6 -7 10 -15 10
-12 0 -15 13 -15 55 0 57 -2 59 -35 45z"/>
<path d="M695 157 c-11 -9 -17 -27 -17 -52 0 -45 24 -70 52 -55 32 17 32 93 1
110 -13 6 -24 5 -36 -3z m45 -52 c0 -41 -2 -45 -25 -45 -23 0 -25 4 -25 45 0
41 2 45 25 45 23 0 25 -4 25 -45z"/>
<path d="M805 160 c-17 -7 -17 -9 -2 -9 13 -1 17 -10 17 -46 0 -33 -4 -45 -15
-45 -8 0 -15 -4 -15 -10 0 -5 18 -10 40 -10 22 0 40 5 40 10 0 6 -7 10 -15 10
-12 0 -15 13 -15 55 0 57 -2 59 -35 45z"/>
<path d="M915 160 c-17 -7 -17 -9 -2 -9 13 -1 17 -10 17 -46 0 -33 -4 -45 -15
-45 -8 0 -15 -4 -15 -10 0 -5 18 -10 40 -10 22 0 40 5 40 10 0 6 -7 10 -15 10
-12 0 -15 13 -15 55 0 57 -2 59 -35 45z"/>
<path d="M1025 157 c-11 -9 -17 -27 -17 -52 0 -45 24 -70 52 -55 32 17 32 93
1 110 -13 6 -24 5 -36 -3z m45 -52 c0 -41 -2 -45 -25 -45 -23 0 -25 4 -25 45
0 41 2 45 25 45 23 0 25 -4 25 -45z"/>
<path d="M1135 157 c-11 -9 -17 -27 -17 -52 0 -45 24 -70 52 -55 32 17 32 93
1 110 -13 6 -24 5 -36 -3z m45 -52 c0 -41 -2 -45 -25 -45 -23 0 -25 4 -25 45
0 41 2 45 25 45 23 0 25 -4 25 -45z"/>
<path d="M1245 157 c-11 -9 -17 -27 -17 -52 0 -45 24 -70 52 -55 32 17 32 93
1 110 -13 6 -24 5 -36 -3z m45 -52 c0 -41 -2 -45 -25 -45 -23 0 -25 4 -25 45
0 41 2 45 25 45 23 0 25 -4 25 -45z"/>
<path d="M1355 160 c-17 -7 -17 -9 -2 -9 13 -1 17 -10 17 -46 0 -33 -4 -45
-15 -45 -8 0 -15 -4 -15 -10 0 -5 18 -10 40 -10 22 0 40 5 40 10 0 6 -7 10
-15 10 -12 0 -15 13 -15 55 0 57 -2 59 -35 45z"/>
<path d="M1465 160 c-17 -7 -17 -9 -2 -9 13 -1 17 -10 17 -46 0 -33 -4 -45
-15 -45 -8 0 -15 -4 -15 -10 0 -5 18 -10 40 -10 22 0 40 5 40 10 0 6 -7 10
-15 10 -12 0 -15 13 -15 55 0 57 -2 59 -35 45z"/>
<path d="M1575 157 c-11 -9 -17 -27 -17 -52 0 -45 24 -70 52 -55 32 17 32 93
1 110 -13 6 -24 5 -36 -3z m45 -52 c0 -41 -2 -45 -25 -45 -23 0 -25 4 -25 45
0 41 2 45 25 45 23 0 25 -4 25 -45z"/>
<path d="M1685 160 c-17 -7 -17 -9 -2 -9 13 -1 17 -10 17 -46 0 -33 -4 -45
-15 -45 -8 0 -15 -4 -15 -10 0 -5 18 -10 40 -10 22 0 40 5 40 10 0 6 -7 10
-15 10 -12 0 -15 13 -15 55 0 57 -2 59 -35 45z"/>
<path d="M1795 160 c-17 -7 -17 -9 -2 -9 13 -1 17 -10 17 -46 0 -33 -4 -45
-15 -45 -8 0 -15 -4 -15 -10 0 -5 18 -10 40 -10 22 0 40 5 40 10 0 6 -7 10
-15 10 -12 0 -15 13 -15 55 0 57 -2 59 -35 45z"/>
<path d="M1905 160 c-17 -7 -17 -9 -2 -9 13 -1 17 -10 17 -46 0 -33 -4 -45
-15 -45 -8 0 -15 -4 -15 -10 0 -5 18 -10 40 -10 22 0 40 5 40 10 0 6 -7 10
-15 10 -12 0 -15 13 -15 55 0 57 -2 59 -35 45z"/>
<path d="M2015 157 c-11 -9 -17 -27 -17 -52 0 -45 24 -70 52 -55 32 17 32 93
1 110 -13 6 -24 5 -36 -3z m45 -52 c0 -41 -2 -45 -25 -45 -23 0 -25 4 -25 45
0 41 2 45 25 45 23 0 25 -4 25 -45z"/>
<path d="M2125 160 c-17 -7 -17 -9 -2 -9 13 -1 17 -10 17 -46 0 -33 -4 -45
-15 -45 -8 0 -15 -4 -15 -10 0 -5 18 -10 40 -10 22 0 40 5 40 10 0 6 -7 10
-15 10 -12 0 -15 13 -15 55 0 57 -2 59 -35 45z"/>
<path d="M2235 157 c-11 -9 -17 -27 -17 -52 0 -45 24 -70 52 -55 32 17 32 93
1 110 -13 6 -24 5 -36 -3z m45 -52 c0 -41 -2 -45 -25 -45 -23 0 -25 4 -25 45
0 41 2 45 25 45 23 0 25 -4 25 -45z"/>
<path d="M2345 160 c-17 -7 -17 -9 -2 -9 13 -1 17 -10 17 -46 0 -33 -4 -45
-15 -45 -8 0 -15 -4 -15 -10 0 -5 18 -10 40 -10 22 0 40 5 40 10 0 6 -7 10
-15 10 -12 0 -15 13 -15 55 0 57 -2 59 -35 45z"/>
<path d="M2455 157 c-11 -9 -17 -27 -17 -52 0 -45 24 -70 52 -55 32 17 32 93
1 110 -13 6 -24 5 -36 -3z m45 -52 c0 -41 -2 -45 -25 -45 -23 0 -25 4 -25 45
0 41 2 45 25 45 23 0 25 -4 25 -45z"/>
<path d="M2565 160 c-17 -7 -17 -9 -2 -9 13 -1 17 -10 17 -46 0 -33 -4 -45
-15 -45 -8 0 -15 -4 -15 -10 0 -5 11 -10 25 -10 24 0 25 2 25 65 0 67 -1 69
-35 55z"/>
</g>
</svg>
